# Tiled2Unity generated file. Do not modify by hand.
# Wavefront file for 'TestMap_mesh_0010.obj'

# Vertices (Count = 816)
v -400 -432 0
v -416 -432 0
v -416 -416 0
v -400 -416 0
v -368 -432 0
v -384 -432 0
v -384 -416 0
v -368 -416 0
v -336 -432 0
v -352 -432 0
v -352 -416 0
v -336 -416 0
v -304 -432 0
v -320 -432 0
v -320 -416 0
v -304 -416 0
v -272 -432 0
v -288 -432 0
v -288 -416 0
v -272 -416 0
v -240 -432 0
v -256 -432 0
v -256 -416 0
v -240 -416 0
v -208 -432 0
v -224 -432 0
v -224 -416 0
v -208 -416 0
v -176 -432 0
v -192 -432 0
v -192 -416 0
v -176 -416 0
v -144 -432 0
v -160 -432 0
v -160 -416 0
v -144 -416 0
v -400 -448 0
v -416 -448 0
v -416 -432 0
v -400 -432 0
v -368 -448 0
v -384 -448 0
v -384 -432 0
v -368 -432 0
v -336 -448 0
v -352 -448 0
v -352 -432 0
v -336 -432 0
v -304 -448 0
v -320 -448 0
v -320 -432 0
v -304 -432 0
v -272 -448 0
v -288 -448 0
v -288 -432 0
v -272 -432 0
v -240 -448 0
v -256 -448 0
v -256 -432 0
v -240 -432 0
v -208 -448 0
v -224 -448 0
v -224 -432 0
v -208 -432 0
v -176 -448 0
v -192 -448 0
v -192 -432 0
v -176 -432 0
v -144 -448 0
v -160 -448 0
v -160 -432 0
v -144 -432 0
v -400 -480 0
v -416 -480 0
v -416 -464 0
v -400 -464 0
v -368 -480 0
v -384 -480 0
v -384 -464 0
v -368 -464 0
v -336 -480 0
v -352 -480 0
v -352 -464 0
v -336 -464 0
v -304 -480 0
v -320 -480 0
v -320 -464 0
v -304 -464 0
v -272 -480 0
v -288 -480 0
v -288 -464 0
v -272 -464 0
v -240 -480 0
v -256 -480 0
v -256 -464 0
v -240 -464 0
v -208 -480 0
v -224 -480 0
v -224 -464 0
v -208 -464 0
v -176 -480 0
v -192 -480 0
v -192 -464 0
v -176 -464 0
v -144 -480 0
v -160 -480 0
v -160 -464 0
v -144 -464 0
v -400 -496 0
v -416 -496 0
v -416 -480 0
v -400 -480 0
v -368 -496 0
v -384 -496 0
v -384 -480 0
v -368 -480 0
v -336 -496 0
v -352 -496 0
v -352 -480 0
v -336 -480 0
v -304 -496 0
v -320 -496 0
v -320 -480 0
v -304 -480 0
v -272 -496 0
v -288 -496 0
v -288 -480 0
v -272 -480 0
v -240 -496 0
v -256 -496 0
v -256 -480 0
v -240 -480 0
v -208 -496 0
v -224 -496 0
v -224 -480 0
v -208 -480 0
v -176 -496 0
v -192 -496 0
v -192 -480 0
v -176 -480 0
v -144 -496 0
v -160 -496 0
v -160 -480 0
v -144 -480 0
v -400 -528 0
v -416 -528 0
v -416 -512 0
v -400 -512 0
v -368 -528 0
v -384 -528 0
v -384 -512 0
v -368 -512 0
v -336 -528 0
v -352 -528 0
v -352 -512 0
v -336 -512 0
v -304 -528 0
v -320 -528 0
v -320 -512 0
v -304 -512 0
v -272 -528 0
v -288 -528 0
v -288 -512 0
v -272 -512 0
v -240 -528 0
v -256 -528 0
v -256 -512 0
v -240 -512 0
v -208 -528 0
v -224 -528 0
v -224 -512 0
v -208 -512 0
v -176 -528 0
v -192 -528 0
v -192 -512 0
v -176 -512 0
v -144 -528 0
v -160 -528 0
v -160 -512 0
v -144 -512 0
v -400 -544 0
v -416 -544 0
v -416 -528 0
v -400 -528 0
v -368 -544 0
v -384 -544 0
v -384 -528 0
v -368 -528 0
v -336 -544 0
v -352 -544 0
v -352 -528 0
v -336 -528 0
v -304 -544 0
v -320 -544 0
v -320 -528 0
v -304 -528 0
v -272 -544 0
v -288 -544 0
v -288 -528 0
v -272 -528 0
v -240 -544 0
v -256 -544 0
v -256 -528 0
v -240 -528 0
v -208 -544 0
v -224 -544 0
v -224 -528 0
v -208 -528 0
v -176 -544 0
v -192 -544 0
v -192 -528 0
v -176 -528 0
v -144 -544 0
v -160 -544 0
v -160 -528 0
v -144 -528 0
v -528 -560 0
v -544 -560 0
v -544 -544 0
v -528 -544 0
v -512 -560 0
v -528 -560 0
v -528 -544 0
v -512 -544 0
v -496 -560 0
v -512 -560 0
v -512 -544 0
v -496 -544 0
v -480 -560 0
v -496 -560 0
v -496 -544 0
v -480 -544 0
v -464 -560 0
v -480 -560 0
v -480 -544 0
v -464 -544 0
v -528 -576 0
v -544 -576 0
v -544 -560 0
v -528 -560 0
v -512 -576 0
v -528 -576 0
v -528 -560 0
v -512 -560 0
v -496 -576 0
v -512 -576 0
v -512 -560 0
v -496 -560 0
v -480 -576 0
v -496 -576 0
v -496 -560 0
v -480 -560 0
v -464 -576 0
v -480 -576 0
v -480 -560 0
v -464 -560 0
v -400 -576 0
v -416 -576 0
v -416 -560 0
v -400 -560 0
v -368 -576 0
v -384 -576 0
v -384 -560 0
v -368 -560 0
v -336 -576 0
v -352 -576 0
v -352 -560 0
v -336 -560 0
v -304 -576 0
v -320 -576 0
v -320 -560 0
v -304 -560 0
v -272 -576 0
v -288 -576 0
v -288 -560 0
v -272 -560 0
v -240 -576 0
v -256 -576 0
v -256 -560 0
v -240 -560 0
v -208 -576 0
v -224 -576 0
v -224 -560 0
v -208 -560 0
v -176 -576 0
v -192 -576 0
v -192 -560 0
v -176 -560 0
v -144 -576 0
v -160 -576 0
v -160 -560 0
v -144 -560 0
v -528 -592 0
v -544 -592 0
v -544 -576 0
v -528 -576 0
v -512 -592 0
v -528 -592 0
v -528 -576 0
v -512 -576 0
v -496 -592 0
v -512 -592 0
v -512 -576 0
v -496 -576 0
v -480 -592 0
v -496 -592 0
v -496 -576 0
v -480 -576 0
v -464 -592 0
v -480 -592 0
v -480 -576 0
v -464 -576 0
v -400 -592 0
v -416 -592 0
v -416 -576 0
v -400 -576 0
v -368 -592 0
v -384 -592 0
v -384 -576 0
v -368 -576 0
v -336 -592 0
v -352 -592 0
v -352 -576 0
v -336 -576 0
v -304 -592 0
v -320 -592 0
v -320 -576 0
v -304 -576 0
v -272 -592 0
v -288 -592 0
v -288 -576 0
v -272 -576 0
v -240 -592 0
v -256 -592 0
v -256 -576 0
v -240 -576 0
v -208 -592 0
v -224 -592 0
v -224 -576 0
v -208 -576 0
v -176 -592 0
v -192 -592 0
v -192 -576 0
v -176 -576 0
v -144 -592 0
v -160 -592 0
v -160 -576 0
v -144 -576 0
v -736 -608 0
v -752 -608 0
v -752 -592 0
v -736 -592 0
v -720 -608 0
v -736 -608 0
v -736 -592 0
v -720 -592 0
v -704 -608 0
v -720 -608 0
v -720 -592 0
v -704 -592 0
v -688 -608 0
v -704 -608 0
v -704 -592 0
v -688 -592 0
v -672 -608 0
v -688 -608 0
v -688 -592 0
v -672 -592 0
v -656 -608 0
v -672 -608 0
v -672 -592 0
v -656 -592 0
v -640 -608 0
v -656 -608 0
v -656 -592 0
v -640 -592 0
v -624 -608 0
v -640 -608 0
v -640 -592 0
v -624 -592 0
v -608 -608 0
v -624 -608 0
v -624 -592 0
v -608 -592 0
v -592 -608 0
v -608 -608 0
v -608 -592 0
v -592 -592 0
v -576 -608 0
v -592 -608 0
v -592 -592 0
v -576 -592 0
v -560 -608 0
v -576 -608 0
v -576 -592 0
v -560 -592 0
v -544 -608 0
v -560 -608 0
v -560 -592 0
v -544 -592 0
v -528 -608 0
v -544 -608 0
v -544 -592 0
v -528 -592 0
v -512 -608 0
v -528 -608 0
v -528 -592 0
v -512 -592 0
v -496 -608 0
v -512 -608 0
v -512 -592 0
v -496 -592 0
v -480 -608 0
v -496 -608 0
v -496 -592 0
v -480 -592 0
v -464 -608 0
v -480 -608 0
v -480 -592 0
v -464 -592 0
v -736 -624 0
v -752 -624 0
v -752 -608 0
v -736 -608 0
v -720 -624 0
v -736 -624 0
v -736 -608 0
v -720 -608 0
v -704 -624 0
v -720 -624 0
v -720 -608 0
v -704 -608 0
v -688 -624 0
v -704 -624 0
v -704 -608 0
v -688 -608 0
v -672 -624 0
v -688 -624 0
v -688 -608 0
v -672 -608 0
v -656 -624 0
v -672 -624 0
v -672 -608 0
v -656 -608 0
v -640 -624 0
v -656 -624 0
v -656 -608 0
v -640 -608 0
v -624 -624 0
v -640 -624 0
v -640 -608 0
v -624 -608 0
v -608 -624 0
v -624 -624 0
v -624 -608 0
v -608 -608 0
v -592 -624 0
v -608 -624 0
v -608 -608 0
v -592 -608 0
v -576 -624 0
v -592 -624 0
v -592 -608 0
v -576 -608 0
v -560 -624 0
v -576 -624 0
v -576 -608 0
v -560 -608 0
v -544 -624 0
v -560 -624 0
v -560 -608 0
v -544 -608 0
v -528 -624 0
v -544 -624 0
v -544 -608 0
v -528 -608 0
v -512 -624 0
v -528 -624 0
v -528 -608 0
v -512 -608 0
v -496 -624 0
v -512 -624 0
v -512 -608 0
v -496 -608 0
v -480 -624 0
v -496 -624 0
v -496 -608 0
v -480 -608 0
v -464 -624 0
v -480 -624 0
v -480 -608 0
v -464 -608 0
v -400 -624 0
v -416 -624 0
v -416 -608 0
v -400 -608 0
v -368 -624 0
v -384 -624 0
v -384 -608 0
v -368 -608 0
v -336 -624 0
v -352 -624 0
v -352 -608 0
v -336 -608 0
v -304 -624 0
v -320 -624 0
v -320 -608 0
v -304 -608 0
v -272 -624 0
v -288 -624 0
v -288 -608 0
v -272 -608 0
v -240 -624 0
v -256 -624 0
v -256 -608 0
v -240 -608 0
v -208 -624 0
v -224 -624 0
v -224 -608 0
v -208 -608 0
v -176 -624 0
v -192 -624 0
v -192 -608 0
v -176 -608 0
v -144 -624 0
v -160 -624 0
v -160 -608 0
v -144 -608 0
v -736 -640 0
v -752 -640 0
v -752 -624 0
v -736 -624 0
v -720 -640 0
v -736 -640 0
v -736 -624 0
v -720 -624 0
v -704 -640 0
v -720 -640 0
v -720 -624 0
v -704 -624 0
v -688 -640 0
v -704 -640 0
v -704 -624 0
v -688 -624 0
v -672 -640 0
v -688 -640 0
v -688 -624 0
v -672 -624 0
v -656 -640 0
v -672 -640 0
v -672 -624 0
v -656 -624 0
v -640 -640 0
v -656 -640 0
v -656 -624 0
v -640 -624 0
v -624 -640 0
v -640 -640 0
v -640 -624 0
v -624 -624 0
v -608 -640 0
v -624 -640 0
v -624 -624 0
v -608 -624 0
v -592 -640 0
v -608 -640 0
v -608 -624 0
v -592 -624 0
v -576 -640 0
v -592 -640 0
v -592 -624 0
v -576 -624 0
v -560 -640 0
v -576 -640 0
v -576 -624 0
v -560 -624 0
v -544 -640 0
v -560 -640 0
v -560 -624 0
v -544 -624 0
v -528 -640 0
v -544 -640 0
v -544 -624 0
v -528 -624 0
v -512 -640 0
v -528 -640 0
v -528 -624 0
v -512 -624 0
v -496 -640 0
v -512 -640 0
v -512 -624 0
v -496 -624 0
v -480 -640 0
v -496 -640 0
v -496 -624 0
v -480 -624 0
v -464 -640 0
v -480 -640 0
v -480 -624 0
v -464 -624 0
v -400 -640 0
v -416 -640 0
v -416 -624 0
v -400 -624 0
v -368 -640 0
v -384 -640 0
v -384 -624 0
v -368 -624 0
v -336 -640 0
v -352 -640 0
v -352 -624 0
v -336 -624 0
v -304 -640 0
v -320 -640 0
v -320 -624 0
v -304 -624 0
v -272 -640 0
v -288 -640 0
v -288 -624 0
v -272 -624 0
v -240 -640 0
v -256 -640 0
v -256 -624 0
v -240 -624 0
v -208 -640 0
v -224 -640 0
v -224 -624 0
v -208 -624 0
v -176 -640 0
v -192 -640 0
v -192 -624 0
v -176 -624 0
v -144 -640 0
v -160 -640 0
v -160 -624 0
v -144 -624 0
v -736 -656 0
v -752 -656 0
v -752 -640 0
v -736 -640 0
v -720 -656 0
v -736 -656 0
v -736 -640 0
v -720 -640 0
v -704 -656 0
v -720 -656 0
v -720 -640 0
v -704 -640 0
v -688 -656 0
v -704 -656 0
v -704 -640 0
v -688 -640 0
v -672 -656 0
v -688 -656 0
v -688 -640 0
v -672 -640 0
v -656 -656 0
v -672 -656 0
v -672 -640 0
v -656 -640 0
v -640 -656 0
v -656 -656 0
v -656 -640 0
v -640 -640 0
v -624 -656 0
v -640 -656 0
v -640 -640 0
v -624 -640 0
v -608 -656 0
v -624 -656 0
v -624 -640 0
v -608 -640 0
v -592 -656 0
v -608 -656 0
v -608 -640 0
v -592 -640 0
v -576 -656 0
v -592 -656 0
v -592 -640 0
v -576 -640 0
v -560 -656 0
v -576 -656 0
v -576 -640 0
v -560 -640 0
v -544 -656 0
v -560 -656 0
v -560 -640 0
v -544 -640 0
v -528 -656 0
v -544 -656 0
v -544 -640 0
v -528 -640 0
v -512 -656 0
v -528 -656 0
v -528 -640 0
v -512 -640 0
v -496 -656 0
v -512 -656 0
v -512 -640 0
v -496 -640 0
v -480 -656 0
v -496 -656 0
v -496 -640 0
v -480 -640 0
v -464 -656 0
v -480 -656 0
v -480 -640 0
v -464 -640 0
v -736 -672 0
v -752 -672 0
v -752 -656 0
v -736 -656 0
v -720 -672 0
v -736 -672 0
v -736 -656 0
v -720 -656 0
v -704 -672 0
v -720 -672 0
v -720 -656 0
v -704 -656 0
v -688 -672 0
v -704 -672 0
v -704 -656 0
v -688 -656 0
v -672 -672 0
v -688 -672 0
v -688 -656 0
v -672 -656 0
v -656 -672 0
v -672 -672 0
v -672 -656 0
v -656 -656 0
v -640 -672 0
v -656 -672 0
v -656 -656 0
v -640 -656 0
v -624 -672 0
v -640 -672 0
v -640 -656 0
v -624 -656 0
v -608 -672 0
v -624 -672 0
v -624 -656 0
v -608 -656 0
v -592 -672 0
v -608 -672 0
v -608 -656 0
v -592 -656 0
v -576 -672 0
v -592 -672 0
v -592 -656 0
v -576 -656 0
v -560 -672 0
v -576 -672 0
v -576 -656 0
v -560 -656 0
v -544 -672 0
v -560 -672 0
v -560 -656 0
v -544 -656 0
v -528 -672 0
v -544 -672 0
v -544 -656 0
v -528 -656 0
v -512 -672 0
v -528 -672 0
v -528 -656 0
v -512 -656 0
v -496 -672 0
v -512 -672 0
v -512 -656 0
v -496 -656 0
v -480 -672 0
v -496 -672 0
v -496 -656 0
v -480 -656 0
v -464 -672 0
v -480 -672 0
v -480 -656 0
v -464 -656 0
v -736 -688 0
v -752 -688 0
v -752 -672 0
v -736 -672 0
v -720 -688 0
v -736 -688 0
v -736 -672 0
v -720 -672 0
v -704 -688 0
v -720 -688 0
v -720 -672 0
v -704 -672 0
v -736 -704 0
v -752 -704 0
v -752 -688 0
v -736 -688 0
v -720 -704 0
v -736 -704 0
v -736 -688 0
v -720 -688 0
v -704 -704 0
v -720 -704 0
v -720 -688 0
v -704 -688 0
v -736 -720 0
v -752 -720 0
v -752 -704 0
v -736 -704 0
v -720 -720 0
v -736 -720 0
v -736 -704 0
v -720 -704 0
v -704 -720 0
v -720 -720 0
v -720 -704 0
v -704 -704 0

# Texture cooridinates (Count = 52)
vt 0.4039256 0.6463878
vt 0.4204545 0.6463878
vt 0.4204545 0.6768061
vt 0.4039256 0.6768061
vt 0.4039256 0.6140684
vt 0.4204545 0.6140684
vt 0.4204545 0.6444867
vt 0.4039256 0.6444867
vt 0.1580579 0.6787072
vt 0.1745868 0.6787072
vt 0.1745868 0.7091255
vt 0.1580579 0.7091255
vt 0.1404959 0.6787072
vt 0.1570248 0.6787072
vt 0.1570248 0.7091255
vt 0.1404959 0.7091255
vt 0.1229339 0.6787072
vt 0.1394628 0.6787072
vt 0.1394628 0.7091255
vt 0.1229339 0.7091255
vt 0.1580579 0.6463878
vt 0.1745868 0.6463878
vt 0.1745868 0.6768061
vt 0.1580579 0.6768061
vt 0.1404959 0.6463878
vt 0.1570248 0.6463878
vt 0.1570248 0.6768061
vt 0.1404959 0.6768061
vt 0.1229339 0.6463878
vt 0.1394628 0.6463878
vt 0.1394628 0.6768061
vt 0.1229339 0.6768061
vt 0.08780992 0.6463878
vt 0.1043388 0.6463878
vt 0.1043388 0.6768061
vt 0.08780992 0.6768061
vt 0.1053719 0.6787072
vt 0.1219008 0.6787072
vt 0.1219008 0.7091255
vt 0.1053719 0.7091255
vt 0.1404959 0.6140684
vt 0.1570248 0.6140684
vt 0.1570248 0.6444867
vt 0.1404959 0.6444867
vt 0.1229339 0.6140684
vt 0.1394628 0.6140684
vt 0.1394628 0.6444867
vt 0.1229339 0.6444867
vt 0.1580579 0.6140684
vt 0.1745868 0.6140684
vt 0.1745868 0.6444867
vt 0.1580579 0.6444867

# Normal
vn 0 0 -1

# Mesh description
g TestMap_mesh_0010

# Faces
f 1/1/1 2/2/1 3/3/1 4/4/1
f 5/1/1 6/2/1 7/3/1 8/4/1
f 9/1/1 10/2/1 11/3/1 12/4/1
f 13/1/1 14/2/1 15/3/1 16/4/1
f 17/1/1 18/2/1 19/3/1 20/4/1
f 21/1/1 22/2/1 23/3/1 24/4/1
f 25/1/1 26/2/1 27/3/1 28/4/1
f 29/1/1 30/2/1 31/3/1 32/4/1
f 33/1/1 34/2/1 35/3/1 36/4/1
f 37/5/1 38/6/1 39/7/1 40/8/1
f 41/5/1 42/6/1 43/7/1 44/8/1
f 45/5/1 46/6/1 47/7/1 48/8/1
f 49/5/1 50/6/1 51/7/1 52/8/1
f 53/5/1 54/6/1 55/7/1 56/8/1
f 57/5/1 58/6/1 59/7/1 60/8/1
f 61/5/1 62/6/1 63/7/1 64/8/1
f 65/5/1 66/6/1 67/7/1 68/8/1
f 69/5/1 70/6/1 71/7/1 72/8/1
f 73/1/1 74/2/1 75/3/1 76/4/1
f 77/1/1 78/2/1 79/3/1 80/4/1
f 81/1/1 82/2/1 83/3/1 84/4/1
f 85/1/1 86/2/1 87/3/1 88/4/1
f 89/1/1 90/2/1 91/3/1 92/4/1
f 93/1/1 94/2/1 95/3/1 96/4/1
f 97/1/1 98/2/1 99/3/1 100/4/1
f 101/1/1 102/2/1 103/3/1 104/4/1
f 105/1/1 106/2/1 107/3/1 108/4/1
f 109/5/1 110/6/1 111/7/1 112/8/1
f 113/5/1 114/6/1 115/7/1 116/8/1
f 117/5/1 118/6/1 119/7/1 120/8/1
f 121/5/1 122/6/1 123/7/1 124/8/1
f 125/5/1 126/6/1 127/7/1 128/8/1
f 129/5/1 130/6/1 131/7/1 132/8/1
f 133/5/1 134/6/1 135/7/1 136/8/1
f 137/5/1 138/6/1 139/7/1 140/8/1
f 141/5/1 142/6/1 143/7/1 144/8/1
f 145/1/1 146/2/1 147/3/1 148/4/1
f 149/1/1 150/2/1 151/3/1 152/4/1
f 153/1/1 154/2/1 155/3/1 156/4/1
f 157/1/1 158/2/1 159/3/1 160/4/1
f 161/1/1 162/2/1 163/3/1 164/4/1
f 165/1/1 166/2/1 167/3/1 168/4/1
f 169/1/1 170/2/1 171/3/1 172/4/1
f 173/1/1 174/2/1 175/3/1 176/4/1
f 177/1/1 178/2/1 179/3/1 180/4/1
f 181/5/1 182/6/1 183/7/1 184/8/1
f 185/5/1 186/6/1 187/7/1 188/8/1
f 189/5/1 190/6/1 191/7/1 192/8/1
f 193/5/1 194/6/1 195/7/1 196/8/1
f 197/5/1 198/6/1 199/7/1 200/8/1
f 201/5/1 202/6/1 203/7/1 204/8/1
f 205/5/1 206/6/1 207/7/1 208/8/1
f 209/5/1 210/6/1 211/7/1 212/8/1
f 213/5/1 214/6/1 215/7/1 216/8/1
f 217/9/1 218/10/1 219/11/1 220/12/1
f 221/13/1 222/14/1 223/15/1 224/16/1
f 225/13/1 226/14/1 227/15/1 228/16/1
f 229/13/1 230/14/1 231/15/1 232/16/1
f 233/17/1 234/18/1 235/19/1 236/20/1
f 237/21/1 238/22/1 239/23/1 240/24/1
f 241/25/1 242/26/1 243/27/1 244/28/1
f 245/25/1 246/26/1 247/27/1 248/28/1
f 249/25/1 250/26/1 251/27/1 252/28/1
f 253/29/1 254/30/1 255/31/1 256/32/1
f 257/1/1 258/2/1 259/3/1 260/4/1
f 261/1/1 262/2/1 263/3/1 264/4/1
f 265/1/1 266/2/1 267/3/1 268/4/1
f 269/1/1 270/2/1 271/3/1 272/4/1
f 273/1/1 274/2/1 275/3/1 276/4/1
f 277/1/1 278/2/1 279/3/1 280/4/1
f 281/1/1 282/2/1 283/3/1 284/4/1
f 285/1/1 286/2/1 287/3/1 288/4/1
f 289/1/1 290/2/1 291/3/1 292/4/1
f 293/21/1 294/22/1 295/23/1 296/24/1
f 297/25/1 298/26/1 299/27/1 300/28/1
f 301/25/1 302/26/1 303/27/1 304/28/1
f 305/25/1 306/26/1 307/27/1 308/28/1
f 309/29/1 310/30/1 311/31/1 312/32/1
f 313/5/1 314/6/1 315/7/1 316/8/1
f 317/5/1 318/6/1 319/7/1 320/8/1
f 321/5/1 322/6/1 323/7/1 324/8/1
f 325/5/1 326/6/1 327/7/1 328/8/1
f 329/5/1 330/6/1 331/7/1 332/8/1
f 333/5/1 334/6/1 335/7/1 336/8/1
f 337/5/1 338/6/1 339/7/1 340/8/1
f 341/5/1 342/6/1 343/7/1 344/8/1
f 345/5/1 346/6/1 347/7/1 348/8/1
f 349/9/1 350/10/1 351/11/1 352/12/1
f 353/13/1 354/14/1 355/15/1 356/16/1
f 357/13/1 358/14/1 359/15/1 360/16/1
f 361/13/1 362/14/1 363/15/1 364/16/1
f 365/13/1 366/14/1 367/15/1 368/16/1
f 369/13/1 370/14/1 371/15/1 372/16/1
f 373/13/1 374/14/1 375/15/1 376/16/1
f 377/13/1 378/14/1 379/15/1 380/16/1
f 381/13/1 382/14/1 383/15/1 384/16/1
f 385/13/1 386/14/1 387/15/1 388/16/1
f 389/13/1 390/14/1 391/15/1 392/16/1
f 393/13/1 394/14/1 395/15/1 396/16/1
f 397/13/1 398/14/1 399/15/1 400/16/1
f 401/33/1 402/34/1 403/35/1 404/36/1
f 405/25/1 406/26/1 407/27/1 408/28/1
f 409/25/1 410/26/1 411/27/1 412/28/1
f 413/25/1 414/26/1 415/27/1 416/28/1
f 417/29/1 418/30/1 419/31/1 420/32/1
f 421/21/1 422/22/1 423/23/1 424/24/1
f 425/25/1 426/26/1 427/27/1 428/28/1
f 429/25/1 430/26/1 431/27/1 432/28/1
f 433/25/1 434/26/1 435/27/1 436/28/1
f 437/25/1 438/26/1 439/27/1 440/28/1
f 441/25/1 442/26/1 443/27/1 444/28/1
f 445/25/1 446/26/1 447/27/1 448/28/1
f 449/25/1 450/26/1 451/27/1 452/28/1
f 453/25/1 454/26/1 455/27/1 456/28/1
f 457/25/1 458/26/1 459/27/1 460/28/1
f 461/25/1 462/26/1 463/27/1 464/28/1
f 465/25/1 466/26/1 467/27/1 468/28/1
f 469/25/1 470/26/1 471/27/1 472/28/1
f 473/25/1 474/26/1 475/27/1 476/28/1
f 477/25/1 478/26/1 479/27/1 480/28/1
f 481/25/1 482/26/1 483/27/1 484/28/1
f 485/25/1 486/26/1 487/27/1 488/28/1
f 489/29/1 490/30/1 491/31/1 492/32/1
f 493/1/1 494/2/1 495/3/1 496/4/1
f 497/1/1 498/2/1 499/3/1 500/4/1
f 501/1/1 502/2/1 503/3/1 504/4/1
f 505/1/1 506/2/1 507/3/1 508/4/1
f 509/1/1 510/2/1 511/3/1 512/4/1
f 513/1/1 514/2/1 515/3/1 516/4/1
f 517/1/1 518/2/1 519/3/1 520/4/1
f 521/1/1 522/2/1 523/3/1 524/4/1
f 525/1/1 526/2/1 527/3/1 528/4/1
f 529/21/1 530/22/1 531/23/1 532/24/1
f 533/25/1 534/26/1 535/27/1 536/28/1
f 537/25/1 538/26/1 539/27/1 540/28/1
f 541/25/1 542/26/1 543/27/1 544/28/1
f 545/25/1 546/26/1 547/27/1 548/28/1
f 549/25/1 550/26/1 551/27/1 552/28/1
f 553/25/1 554/26/1 555/27/1 556/28/1
f 557/25/1 558/26/1 559/27/1 560/28/1
f 561/25/1 562/26/1 563/27/1 564/28/1
f 565/25/1 566/26/1 567/27/1 568/28/1
f 569/25/1 570/26/1 571/27/1 572/28/1
f 573/25/1 574/26/1 575/27/1 576/28/1
f 577/25/1 578/26/1 579/27/1 580/28/1
f 581/25/1 582/26/1 583/27/1 584/28/1
f 585/25/1 586/26/1 587/27/1 588/28/1
f 589/25/1 590/26/1 591/27/1 592/28/1
f 593/25/1 594/26/1 595/27/1 596/28/1
f 597/29/1 598/30/1 599/31/1 600/32/1
f 601/5/1 602/6/1 603/7/1 604/8/1
f 605/5/1 606/6/1 607/7/1 608/8/1
f 609/5/1 610/6/1 611/7/1 612/8/1
f 613/5/1 614/6/1 615/7/1 616/8/1
f 617/5/1 618/6/1 619/7/1 620/8/1
f 621/5/1 622/6/1 623/7/1 624/8/1
f 625/5/1 626/6/1 627/7/1 628/8/1
f 629/5/1 630/6/1 631/7/1 632/8/1
f 633/5/1 634/6/1 635/7/1 636/8/1
f 637/21/1 638/22/1 639/23/1 640/24/1
f 641/25/1 642/26/1 643/27/1 644/28/1
f 645/25/1 646/26/1 647/27/1 648/28/1
f 649/25/1 650/26/1 651/27/1 652/28/1
f 653/25/1 654/26/1 655/27/1 656/28/1
f 657/25/1 658/26/1 659/27/1 660/28/1
f 661/25/1 662/26/1 663/27/1 664/28/1
f 665/25/1 666/26/1 667/27/1 668/28/1
f 669/25/1 670/26/1 671/27/1 672/28/1
f 673/25/1 674/26/1 675/27/1 676/28/1
f 677/25/1 678/26/1 679/27/1 680/28/1
f 681/25/1 682/26/1 683/27/1 684/28/1
f 685/25/1 686/26/1 687/27/1 688/28/1
f 689/25/1 690/26/1 691/27/1 692/28/1
f 693/25/1 694/26/1 695/27/1 696/28/1
f 697/25/1 698/26/1 699/27/1 700/28/1
f 701/25/1 702/26/1 703/27/1 704/28/1
f 705/29/1 706/30/1 707/31/1 708/32/1
f 709/21/1 710/22/1 711/23/1 712/24/1
f 713/25/1 714/26/1 715/27/1 716/28/1
f 717/37/1 718/38/1 719/39/1 720/40/1
f 721/41/1 722/42/1 723/43/1 724/44/1
f 725/41/1 726/42/1 727/43/1 728/44/1
f 729/41/1 730/42/1 731/43/1 732/44/1
f 733/41/1 734/42/1 735/43/1 736/44/1
f 737/41/1 738/42/1 739/43/1 740/44/1
f 741/41/1 742/42/1 743/43/1 744/44/1
f 745/41/1 746/42/1 747/43/1 748/44/1
f 749/41/1 750/42/1 751/43/1 752/44/1
f 753/41/1 754/42/1 755/43/1 756/44/1
f 757/41/1 758/42/1 759/43/1 760/44/1
f 761/41/1 762/42/1 763/43/1 764/44/1
f 765/41/1 766/42/1 767/43/1 768/44/1
f 769/41/1 770/42/1 771/43/1 772/44/1
f 773/41/1 774/42/1 775/43/1 776/44/1
f 777/45/1 778/46/1 779/47/1 780/48/1
f 781/21/1 782/22/1 783/23/1 784/24/1
f 785/25/1 786/26/1 787/27/1 788/28/1
f 789/29/1 790/30/1 791/31/1 792/32/1
f 793/21/1 794/22/1 795/23/1 796/24/1
f 797/25/1 798/26/1 799/27/1 800/28/1
f 801/29/1 802/30/1 803/31/1 804/32/1
f 805/49/1 806/50/1 807/51/1 808/52/1
f 809/41/1 810/42/1 811/43/1 812/44/1
f 813/45/1 814/46/1 815/47/1 816/48/1

