# Tiled2Unity generated file. Do not modify by hand.
# Wavefront file for 'MTE100_mesh_0002.obj'

# Vertices (Count = 388)
v -160 -48 0
v -176 -48 0
v -176 -32 0
v -160 -32 0
v -128 -48 0
v -144 -48 0
v -144 -32 0
v -128 -32 0
v -96 -48 0
v -112 -48 0
v -112 -32 0
v -96 -32 0
v -64 -48 0
v -80 -48 0
v -80 -32 0
v -64 -32 0
v -176 -64 0
v -192 -64 0
v -192 -48 0
v -176 -48 0
v -160 -64 0
v -176 -64 0
v -176 -48 0
v -160 -48 0
v -144 -64 0
v -160 -64 0
v -160 -48 0
v -144 -48 0
v -128 -64 0
v -144 -64 0
v -144 -48 0
v -128 -48 0
v -112 -64 0
v -128 -64 0
v -128 -48 0
v -112 -48 0
v -96 -64 0
v -112 -64 0
v -112 -48 0
v -96 -48 0
v -80 -64 0
v -96 -64 0
v -96 -48 0
v -80 -48 0
v -64 -64 0
v -80 -64 0
v -80 -48 0
v -64 -48 0
v -48 -64 0
v -64 -64 0
v -64 -48 0
v -48 -48 0
v -128 -80 0
v -144 -80 0
v -144 -64 0
v -128 -64 0
v -112 -80 0
v -128 -80 0
v -128 -64 0
v -112 -64 0
v -96 -80 0
v -112 -80 0
v -112 -64 0
v -96 -64 0
v -112 -96 0
v -128 -96 0
v -128 -80 0
v -112 -80 0
v -192 -112 0
v -208 -112 0
v -208 -96 0
v -192 -96 0
v -176 -112 0
v -192 -112 0
v -192 -96 0
v -176 -96 0
v -160 -112 0
v -176 -112 0
v -176 -96 0
v -160 -96 0
v -48 -112 0
v -64 -112 0
v -64 -96 0
v -48 -96 0
v -32 -112 0
v -48 -112 0
v -48 -96 0
v -32 -96 0
v -16 -112 0
v -32 -112 0
v -32 -96 0
v -16 -96 0
v -48 -128 0
v -64 -128 0
v -64 -112 0
v -48 -112 0
v -32 -128 0
v -48 -128 0
v -48 -112 0
v -32 -112 0
v -16 -128 0
v -32 -128 0
v -32 -112 0
v -16 -112 0
v -48 -144 0
v -64 -144 0
v -64 -128 0
v -48 -128 0
v -32 -144 0
v -48 -144 0
v -48 -128 0
v -32 -128 0
v -16 -144 0
v -32 -144 0
v -32 -128 0
v -16 -128 0
v -192 -208 0
v -208 -208 0
v -208 -192 0
v -192 -192 0
v -176 -208 0
v -192 -208 0
v -192 -192 0
v -176 -192 0
v -160 -208 0
v -176 -208 0
v -176 -192 0
v -160 -192 0
v -144 -208 0
v -160 -208 0
v -160 -192 0
v -144 -192 0
v -128 -208 0
v -144 -208 0
v -144 -192 0
v -128 -192 0
v -112 -208 0
v -128 -208 0
v -128 -192 0
v -112 -192 0
v -96 -208 0
v -112 -208 0
v -112 -192 0
v -96 -192 0
v -80 -208 0
v -96 -208 0
v -96 -192 0
v -80 -192 0
v -64 -208 0
v -80 -208 0
v -80 -192 0
v -64 -192 0
v -48 -208 0
v -64 -208 0
v -64 -192 0
v -48 -192 0
v -32 -208 0
v -48 -208 0
v -48 -192 0
v -32 -192 0
v -192 -224 0
v -208 -224 0
v -208 -208 0
v -192 -208 0
v -160 -224 0
v -176 -224 0
v -176 -208 0
v -160 -208 0
v -128 -224 0
v -144 -224 0
v -144 -208 0
v -128 -208 0
v -96 -224 0
v -112 -224 0
v -112 -208 0
v -96 -208 0
v -64 -224 0
v -80 -224 0
v -80 -208 0
v -64 -208 0
v -32 -224 0
v -48 -224 0
v -48 -208 0
v -32 -208 0
v -192 -256 0
v -208 -256 0
v -208 -240 0
v -192 -240 0
v -176 -256 0
v -192 -256 0
v -192 -240 0
v -176 -240 0
v -160 -256 0
v -176 -256 0
v -176 -240 0
v -160 -240 0
v -144 -256 0
v -160 -256 0
v -160 -240 0
v -144 -240 0
v -128 -256 0
v -144 -256 0
v -144 -240 0
v -128 -240 0
v -112 -256 0
v -128 -256 0
v -128 -240 0
v -112 -240 0
v -96 -256 0
v -112 -256 0
v -112 -240 0
v -96 -240 0
v -80 -256 0
v -96 -256 0
v -96 -240 0
v -80 -240 0
v -64 -256 0
v -80 -256 0
v -80 -240 0
v -64 -240 0
v -48 -256 0
v -64 -256 0
v -64 -240 0
v -48 -240 0
v -32 -256 0
v -48 -256 0
v -48 -240 0
v -32 -240 0
v -192 -272 0
v -208 -272 0
v -208 -256 0
v -192 -256 0
v -160 -272 0
v -176 -272 0
v -176 -256 0
v -160 -256 0
v -128 -272 0
v -144 -272 0
v -144 -256 0
v -128 -256 0
v -96 -272 0
v -112 -272 0
v -112 -256 0
v -96 -256 0
v -64 -272 0
v -80 -272 0
v -80 -256 0
v -64 -256 0
v -32 -272 0
v -48 -272 0
v -48 -256 0
v -32 -256 0
v -192 -304 0
v -208 -304 0
v -208 -288 0
v -192 -288 0
v -176 -304 0
v -192 -304 0
v -192 -288 0
v -176 -288 0
v -160 -304 0
v -176 -304 0
v -176 -288 0
v -160 -288 0
v -144 -304 0
v -160 -304 0
v -160 -288 0
v -144 -288 0
v -128 -304 0
v -144 -304 0
v -144 -288 0
v -128 -288 0
v -112 -304 0
v -128 -304 0
v -128 -288 0
v -112 -288 0
v -96 -304 0
v -112 -304 0
v -112 -288 0
v -96 -288 0
v -80 -304 0
v -96 -304 0
v -96 -288 0
v -80 -288 0
v -64 -304 0
v -80 -304 0
v -80 -288 0
v -64 -288 0
v -48 -304 0
v -64 -304 0
v -64 -288 0
v -48 -288 0
v -32 -304 0
v -48 -304 0
v -48 -288 0
v -32 -288 0
v -192 -320 0
v -208 -320 0
v -208 -304 0
v -192 -304 0
v -160 -320 0
v -176 -320 0
v -176 -304 0
v -160 -304 0
v -128 -320 0
v -144 -320 0
v -144 -304 0
v -128 -304 0
v -96 -320 0
v -112 -320 0
v -112 -304 0
v -96 -304 0
v -64 -320 0
v -80 -320 0
v -80 -304 0
v -64 -304 0
v -32 -320 0
v -48 -320 0
v -48 -304 0
v -32 -304 0
v -192 -352 0
v -208 -352 0
v -208 -336 0
v -192 -336 0
v -176 -352 0
v -192 -352 0
v -192 -336 0
v -176 -336 0
v -160 -352 0
v -176 -352 0
v -176 -336 0
v -160 -336 0
v -144 -352 0
v -160 -352 0
v -160 -336 0
v -144 -336 0
v -128 -352 0
v -144 -352 0
v -144 -336 0
v -128 -336 0
v -112 -352 0
v -128 -352 0
v -128 -336 0
v -112 -336 0
v -96 -352 0
v -112 -352 0
v -112 -336 0
v -96 -336 0
v -80 -352 0
v -96 -352 0
v -96 -336 0
v -80 -336 0
v -64 -352 0
v -80 -352 0
v -80 -336 0
v -64 -336 0
v -48 -352 0
v -64 -352 0
v -64 -336 0
v -48 -336 0
v -32 -352 0
v -48 -352 0
v -48 -336 0
v -32 -336 0
v -192 -368 0
v -208 -368 0
v -208 -352 0
v -192 -352 0
v -160 -368 0
v -176 -368 0
v -176 -352 0
v -160 -352 0
v -128 -368 0
v -144 -368 0
v -144 -352 0
v -128 -352 0
v -96 -368 0
v -112 -368 0
v -112 -352 0
v -96 -352 0
v -64 -368 0
v -80 -368 0
v -80 -352 0
v -64 -352 0
v -32 -368 0
v -48 -368 0
v -48 -352 0
v -32 -352 0

# Texture cooridinates (Count = 80)
vt 0.4390496 0.743346
vt 0.4555785 0.743346
vt 0.4555785 0.7737643
vt 0.4390496 0.7737643
vt 0.8780992 0.9695817
vt 0.8946281 0.9695817
vt 0.8946281 1
vt 0.8780992 1
vt 0.3512397 0.7110266
vt 0.3677686 0.7110266
vt 0.3677686 0.7414448
vt 0.3512397 0.7414448
vt 0.4390496 0.7110266
vt 0.4555785 0.7110266
vt 0.4555785 0.7414448
vt 0.4390496 0.7414448
vt 0.8780992 0.9372624
vt 0.8946281 0.9372624
vt 0.8946281 0.9676806
vt 0.8780992 0.9676806
vt 0.8780992 0.904943
vt 0.8946281 0.904943
vt 0.8946281 0.9353612
vt 0.8780992 0.9353612
vt 0.9659091 0.6787072
vt 0.982438 0.6787072
vt 0.982438 0.7091255
vt 0.9659091 0.7091255
vt 0.9659091 0.6463878
vt 0.982438 0.6463878
vt 0.982438 0.6768061
vt 0.9659091 0.6768061
vt 0.4741735 0.9372624
vt 0.4907025 0.9372624
vt 0.4907025 0.9676806
vt 0.4741735 0.9676806
vt 0.2107438 0.7756654
vt 0.2272727 0.7756654
vt 0.2272727 0.8060837
vt 0.2107438 0.8060837
vt 0.2107438 0.8403042
vt 0.2272727 0.8403042
vt 0.2272727 0.8707224
vt 0.2107438 0.8707224
vt 0.2107438 0.8079848
vt 0.2272727 0.8079848
vt 0.2272727 0.838403
vt 0.2107438 0.838403
vt 0.1931818 0.7756654
vt 0.2097107 0.7756654
vt 0.2097107 0.8060837
vt 0.1931818 0.8060837
vt 0.1756198 0.8403042
vt 0.1921488 0.8403042
vt 0.1921488 0.8707224
vt 0.1756198 0.8707224
vt 0.1756198 0.7756654
vt 0.1921488 0.7756654
vt 0.1921488 0.8060837
vt 0.1756198 0.8060837
vt 0.1756198 0.8079848
vt 0.1921488 0.8079848
vt 0.1921488 0.838403
vt 0.1756198 0.838403
vt 0.4741735 0.8079848
vt 0.4907025 0.8079848
vt 0.4907025 0.838403
vt 0.4741735 0.838403
vt 0.4741735 0.8726236
vt 0.4907025 0.8726236
vt 0.4907025 0.9030418
vt 0.4741735 0.9030418
vt 0.4566116 0.8726236
vt 0.4731405 0.8726236
vt 0.4731405 0.9030418
vt 0.4566116 0.9030418
vt 0.3512397 0.904943
vt 0.3677686 0.904943
vt 0.3677686 0.9353612
vt 0.3512397 0.9353612

# Normal
vn 0 0 -1

# Mesh description
g MTE100_mesh_0002

# Faces
f 1/1/1 2/2/1 3/3/1 4/4/1
f 5/5/1 6/6/1 7/7/1 8/8/1
f 9/5/1 10/6/1 11/7/1 12/8/1
f 13/1/1 14/2/1 15/3/1 16/4/1
f 17/9/1 18/10/1 19/11/1 20/12/1
f 21/13/1 22/14/1 23/15/1 24/16/1
f 25/9/1 26/10/1 27/11/1 28/12/1
f 29/17/1 30/18/1 31/19/1 32/20/1
f 33/9/1 34/10/1 35/11/1 36/12/1
f 37/17/1 38/18/1 39/19/1 40/20/1
f 41/9/1 42/10/1 43/11/1 44/12/1
f 45/13/1 46/14/1 47/15/1 48/16/1
f 49/9/1 50/10/1 51/11/1 52/12/1
f 53/21/1 54/22/1 55/23/1 56/24/1
f 57/25/1 58/26/1 59/27/1 60/28/1
f 61/21/1 62/22/1 63/23/1 64/24/1
f 65/29/1 66/30/1 67/31/1 68/32/1
f 69/33/1 70/34/1 71/35/1 72/36/1
f 73/33/1 74/34/1 75/35/1 76/36/1
f 77/33/1 78/34/1 79/35/1 80/36/1
f 81/37/1 82/38/1 83/39/1 84/40/1
f 85/41/1 86/42/1 87/43/1 88/44/1
f 89/45/1 90/46/1 91/47/1 92/48/1
f 93/49/1 94/50/1 95/51/1 96/52/1
f 97/53/1 98/54/1 99/55/1 100/56/1
f 101/45/1 102/46/1 103/47/1 104/48/1
f 105/57/1 106/58/1 107/59/1 108/60/1
f 109/53/1 110/54/1 111/55/1 112/56/1
f 113/61/1 114/62/1 115/63/1 116/64/1
f 117/65/1 118/66/1 119/67/1 120/68/1
f 121/69/1 122/70/1 123/71/1 124/72/1
f 125/69/1 126/70/1 127/71/1 128/72/1
f 129/69/1 130/70/1 131/71/1 132/72/1
f 133/69/1 134/70/1 135/71/1 136/72/1
f 137/69/1 138/70/1 139/71/1 140/72/1
f 141/69/1 142/70/1 143/71/1 144/72/1
f 145/69/1 146/70/1 147/71/1 148/72/1
f 149/69/1 150/70/1 151/71/1 152/72/1
f 153/69/1 154/70/1 155/71/1 156/72/1
f 157/73/1 158/74/1 159/75/1 160/76/1
f 161/77/1 162/78/1 163/79/1 164/80/1
f 165/77/1 166/78/1 167/79/1 168/80/1
f 169/77/1 170/78/1 171/79/1 172/80/1
f 173/77/1 174/78/1 175/79/1 176/80/1
f 177/77/1 178/78/1 179/79/1 180/80/1
f 181/77/1 182/78/1 183/79/1 184/80/1
f 185/65/1 186/66/1 187/67/1 188/68/1
f 189/69/1 190/70/1 191/71/1 192/72/1
f 193/69/1 194/70/1 195/71/1 196/72/1
f 197/69/1 198/70/1 199/71/1 200/72/1
f 201/69/1 202/70/1 203/71/1 204/72/1
f 205/69/1 206/70/1 207/71/1 208/72/1
f 209/69/1 210/70/1 211/71/1 212/72/1
f 213/69/1 214/70/1 215/71/1 216/72/1
f 217/69/1 218/70/1 219/71/1 220/72/1
f 221/69/1 222/70/1 223/71/1 224/72/1
f 225/73/1 226/74/1 227/75/1 228/76/1
f 229/77/1 230/78/1 231/79/1 232/80/1
f 233/77/1 234/78/1 235/79/1 236/80/1
f 237/77/1 238/78/1 239/79/1 240/80/1
f 241/77/1 242/78/1 243/79/1 244/80/1
f 245/77/1 246/78/1 247/79/1 248/80/1
f 249/77/1 250/78/1 251/79/1 252/80/1
f 253/65/1 254/66/1 255/67/1 256/68/1
f 257/69/1 258/70/1 259/71/1 260/72/1
f 261/69/1 262/70/1 263/71/1 264/72/1
f 265/69/1 266/70/1 267/71/1 268/72/1
f 269/69/1 270/70/1 271/71/1 272/72/1
f 273/69/1 274/70/1 275/71/1 276/72/1
f 277/69/1 278/70/1 279/71/1 280/72/1
f 281/69/1 282/70/1 283/71/1 284/72/1
f 285/69/1 286/70/1 287/71/1 288/72/1
f 289/69/1 290/70/1 291/71/1 292/72/1
f 293/73/1 294/74/1 295/75/1 296/76/1
f 297/77/1 298/78/1 299/79/1 300/80/1
f 301/77/1 302/78/1 303/79/1 304/80/1
f 305/77/1 306/78/1 307/79/1 308/80/1
f 309/77/1 310/78/1 311/79/1 312/80/1
f 313/77/1 314/78/1 315/79/1 316/80/1
f 317/77/1 318/78/1 319/79/1 320/80/1
f 321/65/1 322/66/1 323/67/1 324/68/1
f 325/69/1 326/70/1 327/71/1 328/72/1
f 329/69/1 330/70/1 331/71/1 332/72/1
f 333/69/1 334/70/1 335/71/1 336/72/1
f 337/69/1 338/70/1 339/71/1 340/72/1
f 341/69/1 342/70/1 343/71/1 344/72/1
f 345/69/1 346/70/1 347/71/1 348/72/1
f 349/69/1 350/70/1 351/71/1 352/72/1
f 353/69/1 354/70/1 355/71/1 356/72/1
f 357/69/1 358/70/1 359/71/1 360/72/1
f 361/73/1 362/74/1 363/75/1 364/76/1
f 365/77/1 366/78/1 367/79/1 368/80/1
f 369/77/1 370/78/1 371/79/1 372/80/1
f 373/77/1 374/78/1 375/79/1 376/80/1
f 377/77/1 378/78/1 379/79/1 380/80/1
f 381/77/1 382/78/1 383/79/1 384/80/1
f 385/77/1 386/78/1 387/79/1 388/80/1

