# Wavefront OBJ file automatically generated by Tiled2Unity

# Vertices (Count = 112)
v -336 -208 0
v -352 -208 0
v -352 -192 0
v -336 -192 0
v -320 -208 0
v -320 -192 0
v -304 -208 0
v -304 -192 0
v -288 -208 0
v -288 -192 0
v -272 -208 0
v -272 -192 0
v -256 -208 0
v -256 -192 0
v -240 -208 0
v -240 -192 0
v -224 -208 0
v -224 -192 0
v -208 -208 0
v -208 -192 0
v -336 -224 0
v -352 -224 0
v -320 -224 0
v -304 -224 0
v -288 -224 0
v -272 -224 0
v -256 -224 0
v -240 -224 0
v -224 -224 0
v -208 -224 0
v -336 -240 0
v -352 -240 0
v -320 -240 0
v -304 -240 0
v -288 -240 0
v -272 -240 0
v -256 -240 0
v -240 -240 0
v -224 -240 0
v -208 -240 0
v -336 -256 0
v -352 -256 0
v -320 -256 0
v -304 -256 0
v -288 -256 0
v -272 -256 0
v -256 -256 0
v -240 -256 0
v -224 -256 0
v -208 -256 0
v -336 -272 0
v -352 -272 0
v -320 -272 0
v -304 -272 0
v -288 -272 0
v -272 -272 0
v -256 -272 0
v -240 -272 0
v -224 -272 0
v -208 -272 0
v -336 -288 0
v -352 -288 0
v -320 -288 0
v -304 -288 0
v -288 -288 0
v -272 -288 0
v -256 -288 0
v -240 -288 0
v -224 -288 0
v -208 -288 0
v -272 -304 0
v -288 -304 0
v -336 -160 0
v -352 -160 0
v -352 -144 0
v -336 -144 0
v -320 -160 0
v -320 -144 0
v -304 -160 0
v -304 -144 0
v -288 -160 0
v -288 -144 0
v -272 -160 0
v -272 -144 0
v -256 -160 0
v -256 -144 0
v -240 -160 0
v -240 -144 0
v -224 -160 0
v -224 -144 0
v -208 -160 0
v -208 -144 0
v -192 -160 0
v -192 -144 0
v -336 -176 0
v -352 -176 0
v -320 -176 0
v -304 -176 0
v -288 -176 0
v -272 -176 0
v -256 -176 0
v -240 -176 0
v -224 -176 0
v -208 -176 0
v -192 -176 0
v -192 -192 0
v -192 -208 0
v -192 -224 0
v -192 -240 0
v -192 -256 0
v -192 -272 0
v -192 -288 0

# Texture Coorindates (Count = 128)
vt 0.1406179 0.8727456
vt 0.1569027 0.8727456
vt 0.1569027 0.9029198
vt 0.1406179 0.9029198
vt 0.1406179 0.9050651
vt 0.1569027 0.9050651
vt 0.1569027 0.9352391
vt 0.1406179 0.9352391
vt 0.2986758 0.5818711
vt 0.3149606 0.5818711
vt 0.3149606 0.6120452
vt 0.2986758 0.6120452
vt 0.2459898 0.5818711
vt 0.2622746 0.5818711
vt 0.2622746 0.6120452
vt 0.2459898 0.6120452
vt 0.2811138 0.5818711
vt 0.2973986 0.5818711
vt 0.2973986 0.6120452
vt 0.2811138 0.6120452
vt 0.2635518 0.5495517
vt 0.2798366 0.5495517
vt 0.2798366 0.5797259
vt 0.2635518 0.5797259
vt 0.3327667 0.2567761
vt 0.3159936 0.2567761
vt 0.3159936 0.2261137
vt 0.3327667 0.2261137
vt 0.3327667 0.2890955
vt 0.3159936 0.2890955
vt 0.3159936 0.2584331
vt 0.3327667 0.2584331
vt 0.3327667 0.3214149
vt 0.3159936 0.3214149
vt 0.3159936 0.2907524
vt 0.3327667 0.2907524
vt 0.2284279 0.5172324
vt 0.2447126 0.5172324
vt 0.2447126 0.5474064
vt 0.2284279 0.5474064
vt 0.2108659 0.7434681
vt 0.2271507 0.7434681
vt 0.2271507 0.7736422
vt 0.2108659 0.7736422
vt 0.1933039 0.7434681
vt 0.2095887 0.7434681
vt 0.2095887 0.7736422
vt 0.1933039 0.7736422
vt 0.1757419 0.7434681
vt 0.1920267 0.7434681
vt 0.1920267 0.7736422
vt 0.1757419 0.7736422
vt 0.3162378 0.2909966
vt 0.3325226 0.2909966
vt 0.3325226 0.3211707
vt 0.3162378 0.3211707
vt 0.2108659 0.7111487
vt 0.2271507 0.7111487
vt 0.2271507 0.7413228
vt 0.2108659 0.7413228
vt 0.1933039 0.7111487
vt 0.2095887 0.7111487
vt 0.2095887 0.7413228
vt 0.1933039 0.7413228
vt 0.1757419 0.7111487
vt 0.1920267 0.7111487
vt 0.1920267 0.7413228
vt 0.1757419 0.7413228
vt 0.3162378 0.2586772
vt 0.3325226 0.2586772
vt 0.3325226 0.2888513
vt 0.3162378 0.2888513
vt 0.2108659 0.6788293
vt 0.2271507 0.6788293
vt 0.2271507 0.7090034
vt 0.2108659 0.7090034
vt 0.1933039 0.6788293
vt 0.2095887 0.6788293
vt 0.2095887 0.7090034
vt 0.1933039 0.7090034
vt 0.1757419 0.6788293
vt 0.1920267 0.6788293
vt 0.1920267 0.7090034
vt 0.1757419 0.7090034
vt 0.3162378 0.2263578
vt 0.3325226 0.2263578
vt 0.3325226 0.2565319
vt 0.3162378 0.2565319
vt 0.2108659 0.7757875
vt 0.2271507 0.7757875
vt 0.2271507 0.8059616
vt 0.2108659 0.8059616
vt 0.2108659 0.8081068
vt 0.2271507 0.8081068
vt 0.2271507 0.838281
vt 0.2108659 0.838281
vt 0.2459898 0.9373844
vt 0.2622746 0.9373844
vt 0.2622746 0.9675586
vt 0.2459898 0.9675586
vt 0.5094196 0.9697038
vt 0.5257044 0.9697038
vt 0.5257044 0.9998779
vt 0.5094196 0.9998779
vt 0.1933039 0.7757875
vt 0.2095887 0.7757875
vt 0.2095887 0.8059616
vt 0.1933039 0.8059616
vt 0.1933039 0.8081068
vt 0.2095887 0.8081068
vt 0.2095887 0.838281
vt 0.1933039 0.838281
vt 0.3864857 0.8081068
vt 0.4027705 0.8081068
vt 0.4027705 0.838281
vt 0.3864857 0.838281
vt 0.3513618 0.7757875
vt 0.3676465 0.7757875
vt 0.3676465 0.8059616
vt 0.3513618 0.8059616
vt 0.3337997 0.7757875
vt 0.3500845 0.7757875
vt 0.3500845 0.8059616
vt 0.3337997 0.8059616
vt 0.3689237 0.8081068
vt 0.3852085 0.8081068
vt 0.3852085 0.838281
vt 0.3689237 0.838281

# Normal
vn 0 0 -1

# Groups (Count = 3)
g mesh_[00]_[00]
f  1/1/1  2/2/1  3/3/1  4/4/1 
f  5/1/1  1/2/1  4/3/1  6/4/1 
f  7/1/1  5/2/1  6/3/1  8/4/1 
f  9/1/1  7/2/1  8/3/1  10/4/1 
f  11/1/1  9/2/1  10/3/1  12/4/1 
f  13/1/1  11/2/1  12/3/1  14/4/1 
f  15/1/1  13/2/1  14/3/1  16/4/1 
f  17/1/1  15/2/1  16/3/1  18/4/1 
f  19/1/1  17/2/1  18/3/1  20/4/1 
f  21/1/1  22/2/1  2/3/1  1/4/1 
f  23/1/1  21/2/1  1/3/1  5/4/1 
f  24/1/1  23/2/1  5/3/1  7/4/1 
f  25/1/1  24/2/1  7/3/1  9/4/1 
f  26/1/1  25/2/1  9/3/1  11/4/1 
f  27/1/1  26/2/1  11/3/1  13/4/1 
f  28/1/1  27/2/1  13/3/1  15/4/1 
f  29/1/1  28/2/1  15/3/1  17/4/1 
f  30/1/1  29/2/1  17/3/1  19/4/1 
f  31/1/1  32/2/1  22/3/1  21/4/1 
f  33/1/1  31/2/1  21/3/1  23/4/1 
f  34/1/1  33/2/1  23/3/1  24/4/1 
f  35/1/1  34/2/1  24/3/1  25/4/1 
f  36/1/1  35/2/1  25/3/1  26/4/1 
f  37/1/1  36/2/1  26/3/1  27/4/1 
f  38/1/1  37/2/1  27/3/1  28/4/1 
f  39/1/1  38/2/1  28/3/1  29/4/1 
f  40/1/1  39/2/1  29/3/1  30/4/1 
f  41/1/1  42/2/1  32/3/1  31/4/1 
f  43/1/1  41/2/1  31/3/1  33/4/1 
f  44/1/1  43/2/1  33/3/1  34/4/1 
f  45/1/1  44/2/1  34/3/1  35/4/1 
f  46/1/1  45/2/1  35/3/1  36/4/1 
f  47/1/1  46/2/1  36/3/1  37/4/1 
f  48/1/1  47/2/1  37/3/1  38/4/1 
f  49/1/1  48/2/1  38/3/1  39/4/1 
f  50/1/1  49/2/1  39/3/1  40/4/1 
f  51/1/1  52/2/1  42/3/1  41/4/1 
f  53/1/1  51/2/1  41/3/1  43/4/1 
f  54/1/1  53/2/1  43/3/1  44/4/1 
f  55/1/1  54/2/1  44/3/1  45/4/1 
f  56/1/1  55/2/1  45/3/1  46/4/1 
f  57/1/1  56/2/1  46/3/1  47/4/1 
f  58/1/1  57/2/1  47/3/1  48/4/1 
f  59/1/1  58/2/1  48/3/1  49/4/1 
f  60/1/1  59/2/1  49/3/1  50/4/1 
f  61/1/1  62/2/1  52/3/1  51/4/1 
f  63/1/1  61/2/1  51/3/1  53/4/1 
f  64/1/1  63/2/1  53/3/1  54/4/1 
f  65/1/1  64/2/1  54/3/1  55/4/1 
f  66/1/1  65/2/1  55/3/1  56/4/1 
f  67/1/1  66/2/1  56/3/1  57/4/1 
f  68/1/1  67/2/1  57/3/1  58/4/1 
f  69/1/1  68/2/1  58/3/1  59/4/1 
f  70/1/1  69/2/1  59/3/1  60/4/1 
f  71/5/1  72/6/1  65/7/1  66/8/1 
g mesh_[01]_[00]
f  73/9/1  74/10/1  75/11/1  76/12/1 
f  77/13/1  73/14/1  76/15/1  78/16/1 
f  79/13/1  77/14/1  78/15/1  80/16/1 
f  81/13/1  79/14/1  80/15/1  82/16/1 
f  83/13/1  81/14/1  82/15/1  84/16/1 
f  85/13/1  83/14/1  84/15/1  86/16/1 
f  87/13/1  85/14/1  86/15/1  88/16/1 
f  89/13/1  87/14/1  88/15/1  90/16/1 
f  91/13/1  89/14/1  90/15/1  92/16/1 
f  93/17/1  91/18/1  92/19/1  94/20/1 
f  95/21/1  96/22/1  74/23/1  73/24/1 
f  97/25/1  95/26/1  73/27/1  77/28/1 
f  98/25/1  97/26/1  77/27/1  79/28/1 
f  99/25/1  98/26/1  79/27/1  81/28/1 
f  100/25/1  99/26/1  81/27/1  83/28/1 
f  101/25/1  100/26/1  83/27/1  85/28/1 
f  102/25/1  101/26/1  85/27/1  87/28/1 
f  103/25/1  102/26/1  87/27/1  89/28/1 
f  104/25/1  103/26/1  89/27/1  91/28/1 
f  105/21/1  104/22/1  91/23/1  93/24/1 
f  4/21/1  3/22/1  96/23/1  95/24/1 
f  6/29/1  4/30/1  95/31/1  97/32/1 
f  8/29/1  6/30/1  97/31/1  98/32/1 
f  10/29/1  8/30/1  98/31/1  99/32/1 
f  12/29/1  10/30/1  99/31/1  100/32/1 
f  14/29/1  12/30/1  100/31/1  101/32/1 
f  16/29/1  14/30/1  101/31/1  102/32/1 
f  18/29/1  16/30/1  102/31/1  103/32/1 
f  20/29/1  18/30/1  103/31/1  104/32/1 
f  106/21/1  20/22/1  104/23/1  105/24/1 
f  1/21/1  2/22/1  3/23/1  4/24/1 
f  5/33/1  1/34/1  4/35/1  6/36/1 
f  7/33/1  5/34/1  6/35/1  8/36/1 
f  9/33/1  7/34/1  8/35/1  10/36/1 
f  11/33/1  9/34/1  10/35/1  12/36/1 
f  13/33/1  11/34/1  12/35/1  14/36/1 
f  15/33/1  13/34/1  14/35/1  16/36/1 
f  17/33/1  15/34/1  16/35/1  18/36/1 
f  19/33/1  17/34/1  18/35/1  20/36/1 
f  107/21/1  19/22/1  20/23/1  106/24/1 
f  21/21/1  22/22/1  2/23/1  1/24/1 
f  108/21/1  30/22/1  19/23/1  107/24/1 
f  31/37/1  32/38/1  22/39/1  21/40/1 
f  35/41/1  34/42/1  24/43/1  25/44/1 
f  36/45/1  35/46/1  25/47/1  26/48/1 
f  37/49/1  36/50/1  26/51/1  27/52/1 
f  109/37/1  40/38/1  30/39/1  108/40/1 
f  41/53/1  42/54/1  32/55/1  31/56/1 
f  45/57/1  44/58/1  34/59/1  35/60/1 
f  46/61/1  45/62/1  35/63/1  36/64/1 
f  47/65/1  46/66/1  36/67/1  37/68/1 
f  110/53/1  50/54/1  40/55/1  109/56/1 
f  51/69/1  52/70/1  42/71/1  41/72/1 
f  55/73/1  54/74/1  44/75/1  45/76/1 
f  56/77/1  55/78/1  45/79/1  46/80/1 
f  57/81/1  56/82/1  46/83/1  47/84/1 
f  111/69/1  60/70/1  50/71/1  110/72/1 
f  61/85/1  62/86/1  52/87/1  51/88/1 
f  112/85/1  70/86/1  60/87/1  111/88/1 
g mesh_[02]_[00]
f  17/89/1  15/90/1  16/91/1  18/92/1 
f  19/93/1  17/94/1  18/95/1  20/96/1 
f  23/97/1  21/98/1  1/99/1  5/100/1 
f  25/101/1  24/102/1  7/103/1  9/104/1 
f  29/105/1  28/106/1  15/107/1  17/108/1 
f  30/109/1  29/110/1  17/111/1  19/112/1 
f  47/113/1  46/114/1  36/115/1  37/116/1 
f  48/117/1  47/118/1  37/119/1  38/120/1 
f  49/121/1  48/122/1  38/123/1  39/124/1 
f  50/125/1  49/126/1  39/127/1  40/128/1 
